<?xml version="1.0" encoding="UTF-8"?><svg id="a" xmlns="http://www.w3.org/2000/svg" viewBox="0 0 189.96 25.29"><defs><style>.b{fill:#ed1c24;}.c{fill:#231f20;}</style></defs><path class="c" d="M123.48,25.16l2.39-16.75c.67-4.65-2.52-8.41-7.13-8.41h-6.06l-5.74,6.31h10.44c1.15,0,1.95,.94,1.78,2.1l-1.21,8.41-1.2,8.34h6.72Z"/><path class="c" d="M106.28,25.16l2.39-16.75c.67-4.65-2.52-8.41-7.13-8.41h-6.06l-5.74,6.31h10.44c1.15,0,1.95,.94,1.78,2.1l-1.21,8.41-1.2,8.34h6.72Z"/><path class="b" d="M27.15,25.29H7.23C2.62,25.29-.58,21.52,.09,16.87L1.29,8.46C1.95,3.81,6.22,.05,10.82,.05H30.76l-.89,6.31H10.37c-1.15,0-2.22,.94-2.39,2.1l-1.2,8.41c-.17,1.16,.63,2.1,1.79,2.1H28.07l-.92,6.31Z"/><path class="b" d="M61.85,25.21l2.41-16.75C64.93,3.81,69.2,.05,73.81,.05h10.86l-.88,6.31h-10.44c-1.15,0-2.22,.94-2.38,2.1l-1.2,8.41-1.19,8.34h-6.72Z"/><path class="b" d="M61.98,8.46C62.65,3.81,59.45,.05,54.84,.05h-22.13l-.92,6.32h21.71c1.15,0,1.95,.93,1.79,2.1l-.16,1.07s-.85-.01-1.29-.01h-14.52c-4.61,0-9.07,2.66-9.73,7.31v.05c-.65,4.65,2.54,8.41,7.15,8.41h22.89l2.37-16.83Zm-7.83,7.38l-.44,3.14h-16.05c-.92,0-1.55-.75-1.42-1.67,.13-.93,1.02-1.46,1.93-1.46h15.97Z"/><path class="c" d="M99.45,25.16l2.41-16.75C102.52,3.77,106.79,0,111.4,0h4.54l5.44,6.31h-10.44c-1.15,0-2.22,.94-2.38,2.1l-1.2,8.41-1.19,8.34h-6.72Z"/><path class="c" d="M82.25,25.16l2.41-16.75C85.32,3.77,89.59,0,94.2,0h4.54l5.44,6.31h-10.44c-1.15,0-2.22,.94-2.38,2.1l-1.2,8.41-1.19,8.34h-6.72Z"/><path class="c" d="M158.45,8.46c.66-4.65-2.54-8.41-7.14-8.41h-22.13l-.92,6.32h21.71c1.15,0,1.95,.93,1.79,2.1l-.16,1.07s-.85-.01-1.29-.01h-14.52c-4.61,0-9.07,2.66-9.73,7.31v.05c-.65,4.65,2.54,8.41,7.15,8.41h22.89l2.37-16.83Zm-7.83,7.38l-.44,3.14h-16.05c-.92,0-1.55-.75-1.42-1.67,.13-.93,1.02-1.46,1.93-1.46h15.97Z"/><path class="c" d="M189.96,.05h-19.94c-4.61,0-8.88,3.77-9.54,8.41l-1.2,8.41c-.66,4.65,2.54,8.41,7.14,8.41h19.92l.7-4.8h0l.73-4.64h0l1-6.31h-18.79l-1,6.31h12.43l-.5,3.13h-13.18c-1.15,0-1.95-.94-1.79-2.1l1.2-8.41c.17-1.16,1.23-2.1,2.39-2.1h19.5l.89-6.31Z"/></svg>